 http://www.imdb.com/title/tt0468569/

Source: The.Dark.Knight.1080p.BluRay.x264-HD1080 Thanks!

Subs: Arabic, Brazilian, Bulgarian, Croatian, Czech, Danish, Dutch, English HI, English, Estonian, Finnish, French, Greek, Hebrew, Hungarian, Indonesian, Japanese, Latvian, Lithuanian, Norwegian, Persian, Polish, Portuguese, Romanian, Russian, Serbian, Slovak, Slovenian, Spanish, Swedish, Turkish and Vietnamese.

Sample and Screens included.

General
Complete name                            : The Dark Knight-720p MP4 AAC x264 BRRip 2008-CC.mp4
Format                                   : MPEG-4
Format profile                           : Base Media
Codec ID                                 : isom
File size                                : 3.09 GiB
Duration                                 : 2h 32mn
Overall bit rate mode                    : Variable
Overall bit rate                         : 2 902 Kbps
Encoded date                             : UTC 2012-10-07 15:26:03

Video
ID                                       : 1
Format                                   : AVC
Format/Info                              : Advanced Video Codec
Format profile                           : High@L4.1
Format settings, CABAC                   : Yes
Format settings, ReFrames                : 5 frames
Codec ID                                 : avc1
Codec ID/Info                            : Advanced Video Coding
Duration                                 : 2h 32mn
Bit rate                                 : 2 523 Kbps
Maximum bit rate                         : 19.5 Mbps
Width                                    : 1 280 pixels
Height                                   : 528 pixels
Display aspect ratio                     : 2.40:1
Frame rate mode                          : Variable
Frame rate                               : 23.976 fps
Minimum frame rate                       : 7.992 fps
Maximum frame rate                       : 23.981 fps
Color space                              : YUV
Chroma subsampling                       : 4:2:0
Bit depth                                : 8 bits
Scan type                                : Progressive
Bits/(Pixel*Frame)                       : 0.156
Stream size                              : 2.67 GiB (87%)
Writing library                          : x264 core 112

Audio
ID                                       : 2
Format                                   : AAC
Format/Info                              : Advanced Audio Codec
Format profile                           : LC
Codec ID                                 : 40
Duration                                 : 2h 32mn
Bit rate mode                            : Variable
Bit rate                                 : 384 Kbps
Maximum bit rate                         : 648 Kbps
Channel(s)                               : 6 channels
Channel positions                        : Front: L C R, Side: L R, LFE
Sampling rate                            : 48.0 KHz
Compression mode                         : Lossy
Delay relative to video                  : 167ms
Stream size                              : 417 MiB (13%)
Language                                 : English

Enjoy...

Requested by cmptrluvr's. 

Coming up: Taking of Pelham, Hard Candy, Cast Away and more..